<svg width="362" height="106" viewBox="0 0 362 106" fill="none" xmlns="http://www.w3.org/2000/svg">
<rect width="362" height="106" fill="#1E1E1E"/>
<rect width="362" height="106" fill="#5C6BC0"/>
<path d="M80.0988 88L70.7548 71.04L68.1308 71.04L68.1308 88L57.1868 88L57.1868 43.072L75.5548 43.072C79.0961 43.072 82.1041 43.6907 84.5788 44.928C87.0961 46.1653 88.9734 47.872 90.2108 50.048C91.4481 52.1813 92.0668 54.5707 92.0668 57.216C92.0668 60.2027 91.2134 62.8693 89.5068 65.216C87.8428 67.5627 85.3681 69.2267 82.0828 70.208L92.4508 88L80.0988 88ZM68.1308 63.296L74.9148 63.296C76.9201 63.296 78.4134 62.8053 79.3948 61.824C80.4188 60.8427 80.9308 59.456 80.9308 57.664C80.9308 55.9573 80.4188 54.6133 79.3948 53.632C78.4134 52.6507 76.9201 52.16 74.9148 52.16L68.1308 52.16L68.1308 63.296ZM109.881 51.84L109.881 60.928L124.537 60.928L124.537 69.376L109.881 69.376L109.881 79.232L126.457 79.232L126.457 88L98.9368 88L98.9368 43.072L126.457 43.072L126.457 51.84L109.881 51.84ZM163.386 57.28C162.575 55.7867 161.402 54.656 159.866 53.888C158.372 53.0773 156.602 52.672 154.554 52.672C151.012 52.672 148.175 53.8453 146.042 56.192C143.908 58.496 142.842 61.5893 142.842 65.472C142.842 69.6107 143.951 72.8533 146.17 75.2C148.431 77.504 151.524 78.656 155.45 78.656C158.138 78.656 160.399 77.9733 162.234 76.608C164.111 75.2427 165.476 73.28 166.33 70.72L152.442 70.72L152.442 62.656L176.25 62.656L176.25 72.832C175.439 75.5627 174.052 78.1013 172.09 80.448C170.17 82.7947 167.716 84.6933 164.73 86.144C161.743 87.5947 158.372 88.32 154.618 88.32C150.18 88.32 146.212 87.36 142.714 85.44C139.258 83.4773 136.548 80.768 134.586 77.312C132.666 73.856 131.706 69.9093 131.706 65.472C131.706 61.0347 132.666 57.088 134.586 53.632C136.548 50.1333 139.258 47.424 142.714 45.504C146.17 43.5413 150.116 42.56 154.554 42.56C159.93 42.56 164.452 43.8613 168.122 46.464C171.834 49.0667 174.287 52.672 175.482 57.28L163.386 57.28ZM193.256 43.072L193.256 88L182.312 88L182.312 43.072L193.256 43.072ZM217.443 88.448C214.157 88.448 211.213 87.9147 208.611 86.848C206.008 85.7813 203.917 84.2027 202.339 82.112C200.803 80.0213 199.992 77.504 199.907 74.56L211.555 74.56C211.725 76.224 212.301 77.504 213.283 78.4C214.264 79.2533 215.544 79.68 217.123 79.68C218.744 79.68 220.024 79.3173 220.963 78.592C221.901 77.824 222.371 76.7787 222.371 75.456C222.371 74.3467 221.987 73.4293 221.219 72.704C220.493 71.9787 219.576 71.3813 218.467 70.912C217.4 70.4427 215.864 69.9093 213.859 69.312C210.957 68.416 208.589 67.52 206.755 66.624C204.92 65.728 203.341 64.4053 202.019 62.656C200.696 60.9067 200.035 58.624 200.035 55.808C200.035 51.6267 201.549 48.3627 204.579 46.016C207.608 43.6267 211.555 42.432 216.419 42.432C221.368 42.432 225.357 43.6267 228.387 46.016C231.416 48.3627 233.037 51.648 233.251 55.872L221.411 55.872C221.325 54.4213 220.792 53.2907 219.811 52.48C218.829 51.6267 217.571 51.2 216.035 51.2C214.712 51.2 213.645 51.5627 212.835 52.288C212.024 52.9707 211.619 53.9733 211.619 55.296C211.619 56.7467 212.301 57.8773 213.667 58.688C215.032 59.4987 217.165 60.3733 220.067 61.312C222.968 62.2933 225.315 63.232 227.107 64.128C228.941 65.024 230.52 66.3253 231.843 68.032C233.165 69.7387 233.827 71.936 233.827 74.624C233.827 77.184 233.165 79.5093 231.843 81.6C230.563 83.6907 228.685 85.3547 226.211 86.592C223.736 87.8293 220.813 88.448 217.443 88.448ZM272.882 43.072L272.882 51.84L260.978 51.84L260.978 88L250.034 88L250.034 51.84L238.13 51.84L238.13 43.072L272.882 43.072ZM289.318 51.84L289.318 60.928L303.974 60.928L303.974 69.376L289.318 69.376L289.318 79.232L305.894 79.232L305.894 88L278.374 88L278.374 43.072L305.894 43.072L305.894 51.84L289.318 51.84ZM335.911 88L326.567 71.04L323.943 71.04L323.943 88L312.999 88L312.999 43.072L331.367 43.072C334.909 43.072 337.917 43.6907 340.391 44.928C342.909 46.1653 344.786 47.872 346.023 50.048C347.261 52.1813 347.879 54.5707 347.879 57.216C347.879 60.2027 347.026 62.8693 345.319 65.216C343.655 67.5627 341.181 69.2267 337.895 70.208L348.263 88L335.911 88ZM323.943 63.296L330.727 63.296C332.733 63.296 334.226 62.8053 335.207 61.824C336.231 60.8427 336.743 59.456 336.743 57.664C336.743 55.9573 336.231 54.6133 335.207 53.632C334.226 52.6507 332.733 52.16 330.727 52.16L323.943 52.16L323.943 63.296Z" fill="#0A2041"/>
<path d="M15.8821 41.8211C14.973 41.7729 14.0776 41.425 13.2472 40.7973C12.4168 40.1695 11.6677 39.2743 11.0428 38.1628C10.1442 36.7717 9.44465 35.0588 8.99694 33.1529C8.54922 31.247 8.36495 29.1979 8.45802 27.1596L9.39859 27.4321C9.32341 29.2278 9.49247 31.0305 9.89305 32.7045C10.2936 34.3786 10.9153 35.8804 11.7112 37.0969C12.3283 38.2293 13.0971 39.0998 13.9538 39.6362C14.8106 40.1726 15.7305 40.3592 16.637 40.1807C18.5389 39.62 20.253 36.6361 22.068 33.5029C24.2485 29.7303 26.5046 25.8086 29.5859 24.9666C35.5196 23.1558 43.408 36.4971 43.7404 37.0698L43.0595 38.1783C42.9828 38.051 35.1966 24.8369 29.7575 26.5393C26.9808 27.3801 24.8381 31.0887 22.7585 34.6907C20.6788 38.2928 18.9767 41.0853 16.809 41.8385C16.5004 41.8748 16.1904 41.869 15.8821 41.8211Z" fill="#263238"/>
<path d="M9.36458 28.4103L8.95232 26.9661C9.81025 26.2033 10.5457 25.1066 11.0971 23.7678C11.8893 21.0595 12.4868 18.2021 12.8771 15.2554L13.8054 15.6342C13.3844 18.7341 12.7405 21.7354 11.8876 24.5725C11.2556 26.1911 10.3874 27.5118 9.36458 28.4103Z" fill="#73A8D4"/>
<path d="M8.25724 27.7132C7.59439 26.1932 7.03405 24.5554 6.58655 22.8298C6.0826 20.7056 6.85385 13.8559 6.93952 13.0901L7.88027 13.4051C7.46687 16.3048 7.32938 19.2976 7.47287 22.2733C7.89842 23.8646 8.41943 25.3799 9.0278 26.7957L8.25724 27.7132Z" fill="#73A8D4"/>
<path d="M9.36272 27.9638L8.54672 27.1167C9.33917 25.0972 10.0187 22.9592 10.5767 20.7294L11.812 12.5169L12.7403 12.8958C12.7403 12.8958 11.8021 19.2785 11.5051 21.1296C10.9227 23.5176 10.2053 25.806 9.36272 27.9638Z" fill="#73A8D4"/>
<path d="M8.26902 27.5006C8.10759 24.5581 8.09527 21.5992 8.23218 18.6555C8.47952 17.081 8.81495 12.2743 8.81442 12.1467L9.76732 12.3341C9.76811 12.5255 9.42016 17.3748 9.16057 19.0556C9.0292 21.8222 9.04079 24.6037 9.1952 27.3691L8.26902 27.5006Z" fill="#73A8D4"/>
<path d="M65.0127 45.1673L96.4985 12.2068L57.9124 7.66845L28.7277 47.5085L65.0127 45.1673Z" fill="#73A8D4"/>
<path opacity="0.1" d="M65.0127 45.1673L96.4985 12.2068L57.9124 7.66845L28.7277 47.5085L65.0127 45.1673Z" fill="black"/>
<path d="M83.6317 41.0499L81.5385 23.113C81.5385 23.113 69.5184 20.5265 61.386 24.7916C53.2536 29.0567 44.5947 41.0211 44.5947 41.0211L48.8476 59.3317C48.8476 59.3317 59.9267 49.3135 66.5654 46.0964C72.175 43.7478 77.8777 42.0614 83.6317 41.0499Z" fill="#73A8D4"/>
</svg>
